<?xml version="1.0" encoding="UTF-8"?>
<!DOCTYPE svg PUBLIC "-//W3C//DTD SVG 1.1//EN" "http://www.w3.org/Graphics/SVG/1.1/DTD/svg11.dtd">
<!-- Creator: CorelDRAW 2018 (64 Bit Versão de avaliação) -->
<svg xmlns="http://www.w3.org/2000/svg" xml:space="preserve" width="500px" height="528px" version="1.1" style="shape-rendering:geometricPrecision; text-rendering:geometricPrecision; image-rendering:optimizeQuality; fill-rule:evenodd; clip-rule:evenodd"
viewBox="0 0 498.09 526.49"
 xmlns:xlink="http://www.w3.org/1999/xlink">
 <defs>
  <style type="text/css">
   <![CDATA[
    .fil0 {fill:white}
   ]]>
  </style>
 </defs>
 <g id="Camada_x0020_1">
  <metadata id="CorelCorpID_0Corel-Layer"/>
  <g id="_2191987655440">
   <path class="fil0" d="M373.38 310.7c69.1,74.07 76.03,60.24 51.92,84.26l-56.79 56.78c-26.12,26.2 -10.14,20.79 -85.25,-49.12l-11.28 3.72c-4.12,0.27 -7.81,-1.15 -11.29,-3.95 -7.45,-6 -16.43,-16.41 -23.7,-23.41l-78.32 78.17c2.47,-11.43 11.86,-31.37 16.55,-43.27 5.73,-14.54 11.58,-28.95 17.41,-43.54 14.08,-35.22 44.35,-59.6 72.74,-87.99 58.67,-58.67 117.48,-117.23 176.02,-176.03 14.33,14.23 11.21,15.58 4.69,51.1l-8.43 51.09c-8.26,62.12 -10.1,46.39 -64.27,102.19z"/>
   <path class="fil0" d="M350.34 15.41c-26.34,29.1 -58.76,59 -86.87,87.11 -29.34,29.34 -58.69,58.66 -88.03,88 -64.42,64.42 -53.06,59.9 -131.52,90.69 -12.97,5.08 -31.41,13.92 -43.92,17.16l77.96 -78.47c-40.1,-40.73 -38.86,-29.29 17.05,-85.2 28.4,-28.39 56.79,-56.79 85.18,-85.18 20.56,-20.56 18.42,-21.82 42.56,-26.12l106.03 -17.72c9.3,-1.78 12.67,0.38 21.56,9.73z"/>
   <polygon class="fil0" points="290.9,251.1 222.87,319.14 137.68,234.15 205.7,165.97 "/>
   <path class="fil0" d="M362.21 11.41c69.61,-45.56 132.13,57.2 66.89,99.76 -24.59,16.04 -62.62,14.14 -83.52,-17.26 -16.04,-24.12 -13.76,-62.61 16.63,-82.5z"/>
   <polygon class="fil0" points="498.09,458.28 430.09,526.49 426.24,522.75 371.36,467.85 364.9,461.22 432.85,393.11 "/>
  </g>
 </g>
</svg>
