<?xml version="1.0" encoding="UTF-8"?>
<!DOCTYPE svg PUBLIC "-//W3C//DTD SVG 1.1//EN" "http://www.w3.org/Graphics/SVG/1.1/DTD/svg11.dtd">
<!-- Creator: CorelDRAW 2018 (64 Bit Versão de avaliação) -->
<svg xmlns="http://www.w3.org/2000/svg" xml:space="preserve" width="500px" height="500px" version="1.1" style="shape-rendering:geometricPrecision; text-rendering:geometricPrecision; image-rendering:optimizeQuality; fill-rule:evenodd; clip-rule:evenodd"
viewBox="0 0 122.31 122.31"
 xmlns:xlink="http://www.w3.org/1999/xlink">
 <defs>
  <style type="text/css">
   <![CDATA[
    .str0 {stroke:#CCCCCC;stroke-width:0.71;stroke-miterlimit:22.9256}
    .fil0 {fill:none}
    .fil1 {fill:#26CC4A}
    .fil2 {fill:white;fill-rule:nonzero}
   ]]>
  </style>
 </defs>
 <g id="Camada_x0020_1">
  <metadata id="CorelCorpID_0Corel-Layer"/>
  <g id="_2245365367648">
   <g>
    <g>
     <g>
      <polygon class="fil0 str0" points="90.44,76.64 90.44,80.16 90.44,87.76 83.86,91.56 77.28,95.36 70.7,91.56 67.64,89.8 83.58,80.6 "/>
      <polygon class="fil0 str0" points="103.6,64.97 110.18,68.77 116.76,72.56 116.76,80.16 116.76,87.76 110.18,91.56 103.6,95.36 97.02,91.56 90.44,87.76 90.44,80.16 90.44,76.64 102.49,69.68 102.49,65.6 "/>
      <polygon class="fil0 str0" points="90.44,87.76 97.02,91.56 103.6,95.36 103.6,102.96 103.6,110.55 97.02,114.35 90.44,118.15 83.86,114.35 77.28,110.55 77.28,102.96 77.28,95.36 83.86,91.56 "/>
      <polygon class="fil0 str0" points="58.17,87.77 51.61,91.56 45.03,95.36 38.45,91.56 31.87,87.76 31.87,80.16 31.87,72.59 45.75,80.6 "/>
      <polygon class="fil0 str0" points="18.71,64.97 25.29,68.77 26.83,69.65 26.83,69.68 31.87,72.59 31.87,80.16 31.87,87.76 25.29,91.56 18.71,95.36 12.13,91.56 5.55,87.76 5.55,80.16 5.55,72.56 12.13,68.77 "/>
      <polygon class="fil0 str0" points="26.83,69.65 25.29,68.77 18.71,64.97 18.71,57.37 18.71,49.77 25.29,45.97 26.83,45.08 26.83,47.84 "/>
     </g>
     <polygon class="fil1" points="64.66,4.16 83.58,15.08 102.49,26 102.49,47.84 102.49,69.68 83.58,80.6 64.66,91.52 45.75,80.6 26.83,69.68 26.83,47.84 26.83,26 45.75,15.08 "/>
    </g>
    <path class="fil2" d="M77.54 54.43c-0.5,1.42 -2.49,2.59 -4.08,2.93 -1.08,0.24 -2.5,0.42 -7.27,-1.56 -6.11,-2.53 -10.04,-8.73 -10.35,-9.14 -0.29,-0.4 -2.46,-3.28 -2.46,-6.26 0,-2.99 1.51,-4.44 2.12,-5.06 0.5,-0.51 1.33,-0.75 2.12,-0.75 0.26,0 0.49,0.02 0.7,0.03 0.61,0.02 0.92,0.06 1.32,1.02 0.5,1.21 1.72,4.19 1.87,4.5 0.15,0.31 0.29,0.72 0.09,1.12 -0.2,0.42 -0.37,0.6 -0.68,0.96 -0.3,0.35 -0.59,0.62 -0.9,1 -0.28,0.33 -0.6,0.68 -0.25,1.29 0.36,0.6 1.58,2.59 3.38,4.19 2.32,2.07 4.2,2.73 4.87,3.01 0.5,0.21 1.1,0.16 1.46,-0.23 0.47,-0.5 1.04,-1.34 1.63,-2.15 0.41,-0.59 0.94,-0.66 1.49,-0.46 0.56,0.2 3.53,1.67 4.14,1.97 0.61,0.31 1.01,0.45 1.16,0.71 0.14,0.26 0.14,1.46 -0.36,2.88zm-12.09 -29.34l-0.01 0 0 0c-11.45,0 -20.77,9.32 -20.77,20.78 0,4.54 1.46,8.76 3.95,12.18l-2.59 7.72 7.99 -2.56c3.29,2.18 7.21,3.44 11.43,3.44 11.46,0 20.78,-9.32 20.78,-20.78 0,-11.46 -9.32,-20.78 -20.78,-20.78z"/>
   </g>
   <rect class="fil0" width="122.31" height="122.31"/>
  </g>
 </g>
</svg>
