<?xml version="1.0" encoding="UTF-8"?>
<!DOCTYPE svg PUBLIC "-//W3C//DTD SVG 1.1//EN" "http://www.w3.org/Graphics/SVG/1.1/DTD/svg11.dtd">
<!-- Creator: CorelDRAW 2018 (64 Bit Versão de avaliação) -->
<svg xmlns="http://www.w3.org/2000/svg" xml:space="preserve" width="30px" height="30px" version="1.1" shape-rendering="geometricPrecision" text-rendering="geometricPrecision" image-rendering="optimizeQuality" fill-rule="evenodd" clip-rule="evenodd"
viewBox="0 0 11.34 11.34"
 xmlns:xlink="http://www.w3.org/1999/xlink">
 <defs>
   <clipPath id="id0">
    <path d="M0 0l11.34 0 0 11.34 -11.34 0 0 -11.34z"/>
   </clipPath>
 </defs>
 <g id="Camada_x0020_1">
  <metadata id="CorelCorpID_0Corel-Layer"/>
  <polygon fill="#24A5F0" points="0,0 11.34,0 11.34,11.34 0,11.34 "/>
  <g clip-path="url(#id0)">
   <g id="_1958598026480">
    <g>
     <polygon id="1" fill="#DF4643" fill-rule="nonzero" points="-0.85,4.36 17.64,4.36 17.64,3.47 -0.85,3.47 "/>
     <polygon fill="#DF4643" fill-rule="nonzero" points="-0.85,2.6 17.64,2.6 17.64,1.71 -0.85,1.71 "/>
     <polygon fill="#DF4643" fill-rule="nonzero" points="-0.85,0.84 17.64,0.84 17.64,-0.04 -0.85,-0.04 "/>
     <polygon fill="#DF4643" fill-rule="nonzero" points="-0.85,6.12 17.64,6.12 17.64,5.23 -0.85,5.23 "/>
     <polygon fill="#DF4643" fill-rule="nonzero" points="-0.85,7.87 17.64,7.87 17.64,6.99 -0.85,6.99 "/>
     <polygon fill="#DF4643" fill-rule="nonzero" points="-0.85,9.63 17.64,9.63 17.64,8.75 -0.85,8.75 "/>
     <polygon fill="#DF4643" fill-rule="nonzero" points="-0.85,11.39 17.64,11.39 17.64,10.51 -0.85,10.51 "/>
     <polygon fill="#FEFEFE" fill-rule="nonzero" points="-0.85,3.48 17.64,3.48 17.64,2.59 -0.85,2.59 "/>
     <polygon fill="#FEFEFE" fill-rule="nonzero" points="-0.85,1.72 17.64,1.72 17.64,0.84 -0.85,0.84 "/>
     <polygon fill="#FEFEFE" fill-rule="nonzero" points="-0.85,5.24 17.64,5.24 17.64,4.35 -0.85,4.35 "/>
     <polygon fill="#FEFEFE" fill-rule="nonzero" points="-0.85,6.99 17.64,6.99 17.64,6.11 -0.85,6.11 "/>
     <polygon fill="#FEFEFE" fill-rule="nonzero" points="-0.85,8.75 17.64,8.75 17.64,7.87 -0.85,7.87 "/>
     <polygon fill="#FEFEFE" fill-rule="nonzero" points="-0.85,10.51 17.64,10.51 17.64,9.63 -0.85,9.63 "/>
     <polygon fill="#4257A2" fill-rule="nonzero" points="-0.85,5.28 6.07,5.28 6.07,-0.04 -0.85,-0.04 "/>
     <path fill="#FEFEFE" fill-rule="nonzero" d="M2.64 3.19l0.08 0.21 -0.18 -0.13 0 0 0 0 -0.18 0.13 0.08 -0.21 0 0 0 0 -0.18 -0.12 0.22 0 0.05 -0.21 0.07 0.21 0 0 0.22 0 -0.18 0.12 0 0 0 0zm-2.82 -2.68l0.07 0.2 -0.17 -0.12 0 -0.01 0 0.01 -0.18 0.12 0.08 -0.2 0 0 0 0 -0.18 -0.13 0.21 0 0.06 -0.2 0.07 0.2 0 0.01 0 -0.01 0.22 0 -0.18 0.13 0 0 0 0zm1.13 0l0.08 0.2 -0.18 -0.12 0 -0.01 0 0.01 -0.18 0.12 0.08 -0.2 0 0 0 0 -0.18 -0.13 0.21 0 0.06 -0.2 0.07 0.2 0 0.01 0 -0.01 0.22 0 -0.18 0.13 0 0 0 0zm1.12 0l0.07 0.2 -0.18 -0.12 0 -0.01 0 0.01 -0.17 0.12 0.07 -0.2 0 0 0 0 -0.18 -0.13 0.22 0 0.06 -0.2 0.07 0.2 0 0.01 0 -0.01 0.21 0 -0.18 0.13 0 0 0.01 0zm1.13 0l0.08 0.2 -0.18 -0.12 0 -0.01 0 0.01 -0.17 0.12 0.07 -0.2 0 0 0 0 -0.18 -0.13 0.22 0 0.06 -0.2 0.06 0.2 0 0.01 0 -0.01 0.22 0 -0.18 0.13 0 0 0 0zm1.17 0l0.07 0.2 -0.18 -0.12 0 -0.01 0 0.01 -0.17 0.12 0.07 -0.2 0 0 0 0 -0.18 -0.13 0.22 0 0.06 -0.2 0.07 0.2 0 0.01 0 -0.01 0.22 0 -0.19 0.13 0 0 0.01 0zm1.11 0l0.08 0.2 -0.18 -0.12 0 -0.01 0 0.01 -0.17 0.12 0.07 -0.2 0 0 0 0 -0.18 -0.13 0.22 0 0.06 -0.2 0.06 0.2 0 0.01 0 -0.01 0.22 0 -0.18 0.13 0 0 0 0zm-0.55 0.53l0.07 0.21 -0.17 -0.13 0 0 0 0 -0.18 0.13 0.08 -0.21 0 0 0 0 -0.18 -0.12 0.21 0 0.06 -0.21 0.07 0.21 0.22 0 -0.18 0.12 0 0 0 0zm-1.14 0l0.07 0.21 -0.18 -0.13 0 0 0 0 -0.17 0.13 0.07 -0.21 0 0 0 0 -0.18 -0.12 0.22 0 0.06 -0.21 0.07 0.21 0 0 0.21 0 -0.18 0.12 0 0 0.01 0zm0.58 0.54l0.07 0.2 -0.18 -0.12 0 0 0 0 -0.17 0.12 0.07 -0.2 0 0 0 0 -0.18 -0.12 0.22 0 0.06 -0.21 0.07 0.21 0 0 0 0 0.22 0 -0.19 0.12 0 0 0.01 0zm1.11 0l0.08 0.2 -0.18 -0.12 0 0 0 0 -0.17 0.12 0.07 -0.2 0 0 0 0 -0.18 -0.12 0.22 0 0.06 -0.21 0.06 0.21 0 0 0 0 0.22 0 -0.18 0.12 0 0 0 0zm-0.55 0.54l0.07 0.2 -0.17 -0.12 0 -0.01 0 0.01 -0.18 0.12 0.08 -0.2 0 0 0 0 -0.18 -0.13 0.21 0 0.06 -0.2 0.07 0.2 0 0.01 0 -0.01 0.22 0 -0.18 0.13 0 0 0 0zm0.55 0.54l0.08 0.2 -0.18 -0.13 -0.17 0.13 0.07 -0.2 0 -0.01 0 0 -0.18 -0.12 0.22 0 0.06 -0.21 0.06 0.21 0.22 0 -0.18 0.12 0 0 0 0.01zm0 1.07l0.08 0.21 -0.18 -0.13 0 0 0 0 -0.17 0.13 0.07 -0.21 0 0 0 0 -0.18 -0.12 0.22 0 0.06 -0.21 0.06 0.21 0 0 0 0 0.22 0 -0.18 0.12 0 0 0 0zm0 1.08l0.08 0.21 -0.18 -0.13 0 -0.01 0 0.01 -0.17 0.13 0.07 -0.21 0 0 0 0 -0.18 -0.12 0.22 0 0.06 -0.21 0.06 0.21 0 0 0 0 0.22 0 -0.18 0.12 0 0 0 0zm-0.55 -0.54l0.07 0.2 -0.17 -0.12 0 0 0 0 -0.18 0.12 0.08 -0.2 0 0 0 0 -0.18 -0.12 0.21 0 0.06 -0.21 0.07 0.21 0 0 0 0 0.22 0 -0.18 0.12 0 0 0 0zm-0.56 0.54l0.07 0.21 -0.18 -0.13 0 -0.01 0 0.01 -0.17 0.13 0.07 -0.21 0 0 0 0 -0.18 -0.12 0.22 0 0.06 -0.21 0.07 0.21 0 0 0 0 0.22 0 -0.19 0.12 0 0 0.01 0zm-0.58 -0.54l0.07 0.2 -0.18 -0.12 0 0 0 0 -0.17 0.12 0.07 -0.2 0 0 0 0 -0.18 -0.12 0.22 0 0.06 -0.21 0.07 0.21 0 0 0 0 0.21 0 -0.18 0.12 0 0 0.01 0zm0.58 -0.54l0.07 0.21 -0.18 -0.13 0 0 0 0 -0.17 0.13 0.07 -0.21 0 0 0 0 -0.18 -0.12 0.22 0 0.06 -0.21 0.07 0.21 0 0 0 0 0.22 0 -0.19 0.12 0 0 0.01 0zm0.56 -0.54l0.07 0.21 -0.17 -0.13 0 0 0 0 -0.18 0.13 0.08 -0.21 0 0 0 0 -0.18 -0.12 0.21 0 0.06 -0.21 0.07 0.21 0.22 0 -0.18 0.12 0 0 0 0zm-0.56 -0.53l0.07 0.2 -0.18 -0.13 -0.17 0.13 0.07 -0.2 0 -0.01 0 0 -0.18 -0.12 0.22 0 0.06 -0.21 0.07 0.21 0.22 0 -0.19 0.12 0 0 0.01 0.01zm-0.58 0.53l0.07 0.21 -0.18 -0.13 0 0 0 0 -0.17 0.13 0.07 -0.21 0 0 0 0 -0.18 -0.12 0.22 0 0.06 -0.21 0.07 0.21 0 0 0.21 0 -0.18 0.12 0 0 0.01 0zm0 -1.07l0.07 0.2 -0.18 -0.12 0 -0.01 0 0.01 -0.17 0.12 0.07 -0.2 0 0 0 0 -0.18 -0.13 0.22 0 0.06 -0.2 0.07 0.2 0 0.01 0 -0.01 0.21 0 -0.18 0.13 0 0 0.01 0zm-0.59 0.54l0.08 0.2 -0.18 -0.13 0 0 -0.17 0.13 0.07 -0.2 0 -0.01 0 0 -0.18 -0.12 0.22 0 0.06 -0.21 0.06 0.21 0.22 0 -0.18 0.12 0 0 0 0.01zm-0.56 -0.54l0.08 0.2 -0.18 -0.12 0 -0.01 0 0.01 -0.18 0.12 0.08 -0.2 0 0 0 0 -0.18 -0.13 0.22 0 0.05 -0.2 0.07 0.2 0 0.01 0 -0.01 0.22 0 -0.18 0.13 0 0 0 0zm0.56 -0.54l0.08 0.2 -0.18 -0.12 0 0 0 0 -0.17 0.12 0.07 -0.2 0 0 0 0 -0.18 -0.12 0.22 0 0.06 -0.21 0.06 0.21 0 0 0 0 0.22 0 -0.18 0.12 0 0 0 0zm-0.56 -0.54l0.08 0.21 -0.18 -0.13 0 0 0 0 -0.18 0.13 0.08 -0.21 0 0 0 0 -0.18 -0.12 0.22 0 0.05 -0.21 0.07 0.21 0 0 0.22 0 -0.18 0.12 0 0 0 0zm-1.12 0l0.07 0.21 -0.18 -0.13 0 0 0 0 -0.17 0.13 0.07 -0.21 0.01 0 -0.01 0 -0.18 -0.12 0.22 0 0.06 -0.21 0.07 0.21 0 0 0.22 0 -0.18 0.12 0 0 0 0zm0.55 0.54l0.07 0.2 -0.18 -0.12 0 0 0 0 -0.17 0.12 0.07 -0.2 0 0 0 0 -0.18 -0.12 0.22 0 0.06 -0.21 0.07 0.21 0 0 0 0 0.21 0 -0.18 0.12 0 0 0.01 0zm-1.12 0l0.08 0.2 -0.18 -0.12 0 0 0 0 -0.18 0.12 0.08 -0.2 0 0 0 0 -0.18 -0.12 0.21 0 0.06 -0.21 0.07 0.21 0 0 0 0 0.22 0 -0.18 0.12 0 0 0 0zm-0.56 -0.54l0.07 0.21 -0.17 -0.13 0 0 0 0 -0.18 0.13 0.08 -0.21 0 0 0 0 -0.18 -0.12 0.21 0 0.06 -0.21 0.07 0.21 0.22 0 -0.18 0.12 0 0 0 0zm-0.57 0.54l0.07 0.2 -0.17 -0.12 0 0 0 0 -0.18 0.12 0.08 -0.2 0 0 0 0 -0.18 -0.12 0.21 0 0.06 -0.21 0.07 0.21 0 0 0 0 0.22 0 -0.18 0.12 0 0 0 0zm0.57 0.54l0.07 0.2 -0.17 -0.12 0 -0.01 0 0.01 -0.18 0.12 0.08 -0.2 0 0 0 0 -0.18 -0.13 0.21 0 0.06 -0.2 0.07 0.2 0 0.01 0 -0.01 0.22 0 -0.18 0.13 0 0 0 0zm-0.57 0.54l0.07 0.2 -0.17 -0.13 0 0 -0.18 0.13 0.08 -0.2 0 -0.01 0 0 -0.18 -0.12 0.21 0 0.06 -0.21 0.07 0.21 0.22 0 -0.18 0.12 0 0 0 0.01zm0.57 0.53l0.07 0.21 -0.17 -0.13 0 0 0 0 -0.18 0.13 0.08 -0.21 0 0 0 0 -0.18 -0.12 0.21 0 0.06 -0.21 0.07 0.21 0.22 0 -0.18 0.12 0 0 0 0zm0.56 -0.53l0.08 0.2 -0.18 -0.13 0 0 -0.18 0.13 0.08 -0.2 0 -0.01 0 0 -0.18 -0.12 0.21 0 0.06 -0.21 0.07 0.21 0.22 0 -0.18 0.12 0 0 0 0.01zm0.57 -0.54l0.07 0.2 -0.18 -0.12 0 -0.01 0 0.01 -0.17 0.12 0.07 -0.2 0.01 0 -0.01 0 -0.18 -0.13 0.22 0 0.06 -0.2 0.07 0.2 0 0.01 0 -0.01 0.22 0 -0.18 0.13 0 0 0 0zm0.55 0.54l0.07 0.2 -0.18 -0.13 0 0 -0.17 0.13 0.07 -0.2 0 -0.01 0 0 -0.18 -0.12 0.22 0 0.06 -0.21 0.07 0.21 0.21 0 -0.18 0.12 0 0 0.01 0.01zm-0.55 0.53l0.07 0.21 -0.18 -0.13 0 0 0 0 -0.17 0.13 0.07 -0.21 0.01 0 -0.01 0 -0.18 -0.12 0.22 0 0.06 -0.21 0.07 0.21 0 0 0.22 0 -0.18 0.12 0 0 0 0zm0.55 0.54l0.07 0.21 -0.18 -0.13 0 0 0 0 -0.17 0.13 0.07 -0.21 0 0 0 0 -0.18 -0.12 0.22 0 0.06 -0.21 0.07 0.21 0 0 0.21 0 -0.18 0.12 0 0 0.01 0zm-1.12 0l0.08 0.21 -0.18 -0.13 0 0 0 0 -0.18 0.13 0.08 -0.21 0 0 0 0 -0.18 -0.12 0.21 0 0.06 -0.21 0.07 0.21 0 0 0 0 0.22 0 -0.18 0.12 0 0 0 0zm-1.13 0l0.07 0.21 -0.17 -0.13 0 0 0 0 -0.18 0.13 0.08 -0.21 0 0 0 0 -0.18 -0.12 0.21 0 0.06 -0.21 0.07 0.21 0 0 0.22 0 -0.18 0.12 0 0 0 0zm0.57 0.54l0.07 0.2 -0.17 -0.12 0 0 0 0 -0.18 0.12 0.08 -0.2 0 0 0 0 -0.18 -0.12 0.21 0 0.06 -0.21 0.07 0.21 0 0 0 0 0.22 0 -0.18 0.12 0 0 0 0zm-0.57 0.54l0.07 0.21 -0.17 -0.13 0 -0.01 0 0.01 -0.18 0.13 0.08 -0.21 0 0 0 0 -0.18 -0.12 0.21 0 0.06 -0.21 0.07 0.21 0 0 0 0 0.22 0 -0.18 0.12 0 0 0 0zm1.13 0l0.08 0.21 -0.18 -0.13 0 -0.01 0 0.01 -0.18 0.13 0.08 -0.21 0 0 0 0 -0.18 -0.12 0.21 0 0.06 -0.21 0.07 0.21 0 0 0 0 0.22 0 -0.18 0.12 0 0 0 0zm1.12 0l0.07 0.21 -0.18 -0.13 0 -0.01 0 0.01 -0.17 0.13 0.07 -0.21 0 0 0 0 -0.18 -0.12 0.22 0 0.06 -0.21 0.07 0.21 0 0 0 0 0.21 0 -0.18 0.12 0 0 0.01 0zm1.13 0l0.08 0.21 -0.18 -0.13 0 -0.01 0 0.01 -0.17 0.13 0.07 -0.21 0 0 0 0 -0.18 -0.12 0.22 0 0.06 -0.21 0.06 0.21 0 0 0 0 0.22 0 -0.18 0.12 0 0 0 0zm0 -1.08l0.08 0.21 -0.18 -0.13 0 0 0 0 -0.17 0.13 0.07 -0.21 0 0 0 0 -0.18 -0.12 0.22 0 0.06 -0.21 0.06 0.21 0 0 0 0 0.22 0 -0.18 0.12 0 0 0 0z"/>
    </g>
   </g>
  </g>
  <polygon fill="none" points="0,0 11.34,0 11.34,11.34 0,11.34 "/>
 </g>
</svg>
