<?xml version="1.0" encoding="UTF-8"?>
<!DOCTYPE svg PUBLIC "-//W3C//DTD SVG 1.1//EN" "http://www.w3.org/Graphics/SVG/1.1/DTD/svg11.dtd">
<!-- Creator: CorelDRAW 2018 (64 Bit Versão de avaliação) -->
<svg xmlns="http://www.w3.org/2000/svg" xml:space="preserve" width="1023px" height="302px" version="1.1" style="shape-rendering:geometricPrecision; text-rendering:geometricPrecision; image-rendering:optimizeQuality; fill-rule:evenodd; clip-rule:evenodd"
viewBox="0 0 346.72 102.16"
 xmlns:xlink="http://www.w3.org/1999/xlink">
 <defs>
  <style type="text/css">
   <![CDATA[
    .fil2 {fill:none}
    .fil1 {fill:white}
    .fil0 {fill:white;fill-rule:nonzero}
   ]]>
  </style>
 </defs>
 <g id="Camada_x0020_1">
  <metadata id="CorelCorpID_0Corel-Layer"/>
  <g id="_2106549921360">
   <path class="fil0" d="M128.47 71.95l0 0c-0.83,0 -1.59,-0.22 -2.27,-0.68 -0.7,-0.44 -1.21,-1.04 -1.56,-1.8l-17.48 -39.22 9.15 0 12.16 27.26 12.16 -27.26 9.11 0 -17.47 39.22c-0.36,0.76 -0.87,1.36 -1.54,1.8 -0.7,0.46 -1.45,0.68 -2.26,0.68zm173.9 -18.32l0 0c0.99,-1.58 0.99,-3.18 0,-4.77l-12.92 -18.64 10.14 0 9.5 13.7 9.47 -13.7 10.14 0 -12.89 18.64c-1,1.59 -1,3.19 0,4.77l12.69 18.32 -10.18 0 -9.23 -13.39 -9.26 13.39 -10.14 0 12.68 -18.32zm-56.39 18.32l0 0 -8.36 0 0 -23.79 -14.61 21.92c-0.83,1.21 -1.98,1.83 -3.44,1.87 -0.02,0 -0.04,0 -0.04,0 0,0 0,0 0,0 -1.47,-0.05 -2.64,-0.7 -3.47,-1.9l-13.88 -21.51 0 23.41 -8.36 0 0 -37.54c0,-0.94 0.27,-1.79 0.83,-2.51 0.54,-0.73 1.25,-1.23 2.15,-1.5 1.95,-0.47 3.51,0.1 4.7,1.72l18.1 28.05 18.73 -28.09c1.19,-1.59 2.75,-2.15 4.67,-1.68 0.89,0.29 1.62,0.8 2.17,1.53 0.54,0.73 0.81,1.56 0.81,2.48l0 37.54zm22.18 -41.7l0 0c0.81,0 1.56,0.22 2.25,0.66 0.68,0.46 1.19,1.05 1.55,1.82l17.47 39.22 -9.11 0 -12.16 -27.26 -12.17 27.26 -9.14 0 17.47 -39.22c0.36,-0.77 0.87,-1.36 1.56,-1.82 0.68,-0.44 1.44,-0.66 2.28,-0.66zm-80.17 41.7l0 0 -23.66 0c-2.31,0 -4.41,-0.56 -6.3,-1.7 -1.88,-1.14 -3.39,-2.65 -4.53,-4.53 -1.13,-1.88 -1.69,-3.99 -1.69,-6.28l0 -8.36 0 -8.36c0,-2.29 0.56,-4.4 1.69,-6.28 1.14,-1.88 2.65,-3.39 4.53,-4.53 1.89,-1.13 3.99,-1.69 6.3,-1.69l23.66 0 0 8.36 -23.66 0c-1.16,0 -2.14,0.41 -2.94,1.2 -0.81,0.82 -1.22,1.8 -1.22,2.94l0 4.19 23.63 0 0 8.34 -23.63 0 0 4.19c0,1.14 0.41,2.12 1.22,2.92 0.8,0.82 1.78,1.22 2.94,1.22l23.66 0 0 8.37z"/>
   <path class="fil1" d="M37.22 17.79l-19.2 11.11 0 44.37 19.2 11.1 19.22 11.11 19.22 -11.11 19.23 -11.1 0 -22.19 0 -22.18 -19.23 -11.11 -19.22 -11.11 -19.22 11.11zm-2.51 29.95l-0.06 -0.02 -0.03 0 0 0 -0.07 0 0 0 0 -0.03 -0.09 0 -0.02 -0.03 -0.09 -0.02 0 0 -0.05 0 -0.06 -0.03 -0.03 0 -0.06 -0.02 -0.05 -0.03 -0.05 0 -0.09 -0.05 -0.02 0 -0.07 -0.03 -0.09 -0.02 0 0 -0.11 -0.05 -0.05 -0.03 -0.07 -0.03 -0.11 -0.02 0 0 -0.11 -0.05 -0.07 -0.03 -0.05 -0.03 -0.11 -0.05 -0.02 -0.02 -0.12 -0.03 -0.09 -0.05 -0.02 0 -0.14 -0.08 -0.07 -0.02 -0.06 -0.03 -0.14 -0.05 0 0 -0.14 -0.08 -0.09 -0.03 -0.07 -0.02 -0.13 -0.08 -0.05 -0.03 -0.11 -0.02 -0.12 -0.08 -0.02 0 -0.16 -0.08 -0.07 -0.02 -0.09 -0.05 -0.16 -0.08 0 0 -0.16 -0.08 -0.11 -0.05 -0.05 -0.03 -0.15 -0.07 -0.05 0 -0.14 -0.08 -0.13 -0.05 -0.03 -0.03 -0.18 -0.08 -0.07 -0.02 -0.09 -0.06 -0.18 -0.07 0 -0.03 -0.16 -0.08 -0.13 -0.05 -0.05 -0.02 -0.18 -0.08 -0.05 -0.03 -0.13 -0.08 -0.16 -0.05 -0.03 -0.02 -0.16 -0.08 -0.09 -0.05 -0.09 -0.05 -0.18 -0.08 -0.02 0 -0.16 -0.11 -0.14 -0.05 -0.04 -0.02 -0.19 -0.11 -0.06 -0.02 -0.12 -0.05 -0.16 -0.08 -0.02 -0.03 -0.18 -0.08 -0.09 -0.05 -0.09 -0.05 -0.19 -0.08 -0.02 -0.02 -0.16 -0.08 -0.13 -0.05 -0.05 -0.03 -0.18 -0.1 -0.07 -0.03 -0.11 -0.05 -0.16 -0.08 -0.03 -0.02 -0.18 -0.08 -0.09 -0.05 -0.09 -0.05 -0.18 -0.08 0 -10.31 15.45 -8.9 15.42 -8.91 15.45 8.91 15.42 8.9 0 17.84 0 17.81 -15.42 8.93 -15.45 8.91 -15.42 -8.91 -15.45 -8.93 0 -4.71 0.02 0 0.02 0.03 0.03 0 0.02 0 0.02 0 0.02 0.02 0.03 0 0 0 0.02 0.03 0.05 0 0.02 0.02 0 0 0.02 0 0.05 0.03 0.02 0 0 0 0.02 0.03 0.05 0 0.02 0.02 0 0 0.05 0 0.02 0.03 0.04 0.02 0 0 0.03 0 0.04 0.03 0.03 0 0 0 0.04 0.03 0.05 0.02 0.02 0 0.02 0 0.02 0.03 0.05 0.02 0.05 0 0 0.03 0.04 0 0.02 0.02 0.05 0.03 0.02 0 0.02 0 0.05 0.03 0.05 0.02 0.02 0 0.02 0.03 0.05 0.02 0.04 0 0.02 0.03 0.05 0 0.05 0.03 0.04 0.02 0.02 0 0.03 0.03 0.04 0.02 0.07 0.03 0.02 0 0.03 0.03 0.04 0.02 0.07 0.03 0.02 0 0.03 0.02 0.06 0.03 0.05 0.02 0.05 0.03 0.02 0 0.07 0.03 0.04 0.02 0.05 0.03 0.09 0.02 0.04 0.06 0.07 0 0 0.02 0.07 0.03 0.07 0.02 0.04 0.03 0.03 0 0.06 0.05 0.07 0.03 0.07 0.02 0 0 0.07 0.06 0.07 0.02 0.07 0.03c7.48,3.72 15.06,7.17 22.63,10.71l0 0c2.53,1.2 6.65,0 8.6,-1.86l0 0 20.86 -26.53c0.34,-0.44 5.24,-6.45 5.14,-6.74l0 0c-0.29,-0.88 -3.25,-2.3 -4.11,-2.61l0 0 -1.62 -0.6c-2.27,-0.93 -3.91,-1.13 -5.69,1.17l0 0 -7.64 10.07c-0.3,0.36 -0.43,0.62 -0.75,1.01l0 0 -2.28 3.03c-0.54,0.7 -0.97,1.24 -1.5,1.91l0 0c-1.13,1.48 -8.44,11.19 -9.32,12.02l0 0c-0.5,0.49 -1.6,1.29 -2.42,1.58l0 0c-2.73,0.9 -5.52,-0.78 -7.46,-1.74l0 0 -17.4 -8.7 0 -1.55 0.02 0 0.23 0.1 0.09 0.05 0.16 0.08 0.18 0.11 0.07 0.02 0.27 0.13 0.02 0.03 0.25 0.1 0.12 0.05 0.16 0.11 0.2 0.1 0.09 0.02 0.28 0.16 0.02 0 0.27 0.13 0.12 0.05 0.2 0.11 0.21 0.1 0.09 0.05 0.29 0.13 0.03 0.03 0.29 0.13 0.11 0.07 0.21 0.08 0.23 0.1 0.09 0.06 0.32 0.15 0.02 0 0.32 0.16 0.11 0.07 0.21 0.08 0.22 0.13 0.12 0.05 0.32 0.16 0.02 0 0.32 0.15 0.13 0.06 0.21 0.1 0.23 0.13 0.11 0.02 0.32 0.19 0.02 0 0.32 0.15 0.14 0.05 0.2 0.11 0.25 0.13 0.09 0.05 0.34 0.15 0.03 0 0.31 0.16 0.12 0.05 0.23 0.1 0.22 0.13 0.09 0.03 0.35 0.18 0.02 0 0.32 0.16 0.11 0.05 0.21 0.1 0.22 0.1 0.12 0.06 0.31 0.15 0 0 0.32 0.16 0.12 0.05 0.2 0.1 0.23 0.11 0.09 0.02 0.32 0.16 0 0 0.3 0.15 0.11 0.05 0.2 0.08 0.21 0.11 0.09 0.05 0.29 0.13 0 0 0.3 0.13 0.09 0.05 0.18 0.1 0.19 0.08 0.09 0.05 0.27 0.13 0 0 0.27 0.1 0.09 0.06 0.16 0.07 0.18 0.08 0.07 0.05 0.25 0.11 0 0 0.23 0.1 0.09 0.05 0.14 0.08 0.16 0.05 0.07 0.05 0.2 0.11 0 0 0.21 0.07 0.06 0.03 0.14 0.08 0.11 0.05 0.07 0.02 0.18 0.08 0 0 0.16 0.08 0.05 0.03 0.11 0.05 0.09 0.05 0.05 0.03 0.14 0.05c0.38,0.13 0.41,0.1 0.79,0.31l0 0c3.87,1.94 6.24,1.01 9.1,-2.69l0 0c0.27,-0.37 0.39,-0.57 0.66,-0.94l0 0 5.21 -7.01c0.3,-0.39 0.43,-0.62 0.73,-1.04l0 0 12.63 -17.08c1.66,-2.49 2.27,-1.89 -0.5,-3.6l0 0 -4.58 -1.97c-3.25,-1.32 -4.96,1.24 -6.55,3.65l0 0 -3.71 5.07c-0.25,0.32 -0.41,0.52 -0.63,0.86l0 0c-0.23,0.34 -0.41,0.54 -0.64,0.85l0 0c-2.44,3.14 -5.03,7.02 -7.49,10.15l0 0c-1.13,1.48 -3.41,5.18 -5.02,5.72l0 0c-3.12,1.04 -3.74,0.31 -5.51,-0.31l0 0c-0.34,-0.13 -0.34,-0.08 -0.73,-0.26l0 0 -11.94 -5.95 0 -0.08 0 -1.79 0.11 0.06 0.05 0.02 0.13 0.08 0 0 0.14 0.08 0.16 0.08 0.07 0.02 0.07 0.05 0.11 0.06 0.05 0.02 0.13 0.08 0 0 0.16 0.08 0.02 0 0.12 0.07 0.27 0.13 0.05 0.03 0.13 0.08 0 0 0.32 0.15 0.05 0.05 0.09 0.06 0.11 0.05 0.05 0.02 0.13 0.06 0.03 0.02 0.16 0.08 0 0 0.13 0.08 0.07 0.02 0.09 0.05 0.09 0.06 0.07 0.02 0.11 0.08 0.05 0 0.14 0.08 0.02 0.02 0.14 0.08 0.04 0.03 0.11 0.05 0.07 0.02 0.21 0.11 0.02 0.02 0.16 0.08 0 0 0.16 0.08 0.02 0.02 0.12 0.06 0.09 0.02 0.06 0.05 0.12 0.06 0.04 0.02 0.14 0.08 0 0 0.16 0.08 0.02 0 0.12 0.08 0.09 0.02 0.07 0.03 0.11 0.05 0.18 0.1 0 0 0.14 0.08 0.04 0 0.12 0.05 0.07 0.05 0.06 0.03 0.12 0.05 0.18 0.08 0 0 0.14 0.08 0.02 0 0.14 0.07 0.04 0.03 0.09 0.03 0.09 0.05 0.05 0.02 0.13 0.05 0 0 0.14 0.06 0.02 0.02 0.12 0.05 0.07 0 0.06 0.06 0.09 0.02 0.05 0.03 0.11 0.05 0.03 0 0.13 0.05 0.03 0.03 0.11 0.05 0.05 0 0.09 0.05 0.06 0.03 0.05 0 0.11 0.05 0.03 0 0.13 0.05 0 0 0.12 0.05 0.04 0 0.07 0.05 0.07 0 0.07 0.03 0.09 0.03 0.02 0.02 0.11 0.03 3.3 1.53c1.46,0.67 3.17,1.21 4.74,0.25l0 0c1.34,-0.82 3.84,-4.47 4.75,-5.64l0 0 10.17 -13.2c1.14,-1.48 3.98,-5.39 5.03,-6.55l0 0c0.88,-0.99 0.54,-1.4 -1.41,-2.36l0 0c-1.66,-0.83 -1.82,-0.93 -3.42,-1.5l0 0c-1.66,-0.59 -2.68,-0.98 -3.59,-0.83l0 0 -0.71 0.26c-0.7,0.34 -1.41,1.09 -2.38,2.33l0 0 -6.83 9.19c-0.18,0.23 -0.36,0.44 -0.52,0.7l0 0 -6.17 8.47c-0.25,0.25 -1.29,1.06 -1.68,1.19l0 0c-0.32,0.1 -0.87,0.15 -1.21,0.15l0 0c-0.07,0 -0.11,0 -0.16,0l0 0z"/>
   <rect class="fil2" width="346.72" height="102.16"/>
  </g>
 </g>
</svg>
