<?xml version="1.0" encoding="UTF-8"?>
<!DOCTYPE svg PUBLIC "-//W3C//DTD SVG 1.1//EN" "http://www.w3.org/Graphics/SVG/1.1/DTD/svg11.dtd">
<!-- Creator: CorelDRAW 2018 (64 Bit Versão de avaliação) -->
<svg xmlns="http://www.w3.org/2000/svg" xml:space="preserve" width="500px" height="675px" version="1.1" style="shape-rendering:geometricPrecision; text-rendering:geometricPrecision; image-rendering:optimizeQuality; fill-rule:evenodd; clip-rule:evenodd"
viewBox="0 0 522.46 705.95"
 xmlns:xlink="http://www.w3.org/1999/xlink">
 <defs>
  <style type="text/css">
   <![CDATA[
    .str0 {stroke:#262433;stroke-width:2.99;stroke-miterlimit:22.9256}
    .fil0 {fill:none}
    .fil1 {fill:white;fill-rule:nonzero}
    .fil2 {fill:url(#id0);fill-rule:nonzero}
   ]]>
  </style>
  <linearGradient id="id0" gradientUnits="userSpaceOnUse" x1="119.28" y1="259.49" x2="403.18" y2="259.49">
   <stop offset="0" style="stop-opacity:1; stop-color:#285FA7"/>
   <stop offset="1" style="stop-opacity:1; stop-color:#4FA8DB"/>
  </linearGradient>
 </defs>
 <g id="Camada_x0020_1">
  <metadata id="CorelCorpID_0Corel-Layer"/>
  <g id="_2397253624688">
   <polygon class="fil0 str0" points="353.55,43.82 388.13,63.79 422.71,83.75 422.71,123.68 422.71,163.61 388.13,183.58 353.55,203.54 318.97,183.58 284.39,163.61 284.39,123.68 284.39,83.75 318.97,63.79 "/>
   <path class="fil1" d="M277.85 658.29l0 0 -31.89 0 0 -90.69 -55.69 83.57c-3.17,4.59 -7.57,6.99 -13.13,7.12 -0.07,0 -0.13,0 -0.13,0 0,0 0,0 0,0 -5.63,-0.2 -10.09,-2.66 -13.26,-7.25l-52.92 -82.02 0 89.27 -31.89 0 0 -143.15c0,-3.56 1.04,-6.79 3.17,-9.58 2.07,-2.78 4.79,-4.65 8.22,-5.69 7.44,-1.81 13.39,0.39 17.92,6.54l69.01 106.98 71.42 -107.11c4.52,-6.08 10.48,-8.22 17.78,-6.41 3.43,1.1 6.21,3.04 8.28,5.82 2.07,2.79 3.11,5.96 3.11,9.45l0 143.15zm84.55 -159l0 0c3.11,0 5.95,0.84 8.61,2.52 2.58,1.75 4.53,4.01 5.88,6.92l66.63 149.56 -34.74 0 -46.38 -103.95 -46.37 103.95 -34.87 0 66.63 -149.56c1.35,-2.91 3.29,-5.17 5.95,-6.92 2.58,-1.68 5.5,-2.52 8.66,-2.52z"/>
   <polygon class="fil0 str0" points="150.34,203.54 194.67,229.14 239,254.73 239,305.92 239,357.1 194.67,382.7 150.34,408.29 106.01,382.7 61.68,357.1 61.68,305.92 61.68,254.73 106.01,229.14 "/>
   <polygon class="fil0 str0" points="173.47,43.82 206.23,62.74 239,81.65 239,119.49 239,157.32 206.23,176.24 173.47,195.15 140.71,176.24 107.94,157.32 107.94,119.49 107.94,81.65 140.71,62.74 "/>
   <path class="fil2" d="M402.24 228.91l-35.48 -70.98c-1.25,-2.49 -3.61,-4.26 -6.35,-4.75l-97.59 -17.75c-1.04,-0.19 -2.13,-0.19 -3.17,0l-97.6 17.75c-2.74,0.49 -5.1,2.26 -6.35,4.75l-35.48 70.98c-1.67,3.31 -1.08,7.33 1.46,10.03l133.08 141.95c1.68,1.8 4.02,2.81 6.47,2.81 2.45,0 4.79,-1.01 6.47,-2.81l133.08 -141.95c2.54,-2.7 3.13,-6.72 1.46,-10.03zm-91.44 12.84l-49.57 103.64 -49.57 -103.64 99.14 0zm-94.63 -17.75l45.06 -64.37 45.07 64.37 -90.13 0zm64.7 -67.25l64.93 11.8 -23 48.1 -41.93 -59.9zm-81.21 59.9l-23 -48.1 64.93 -11.8 -41.93 59.9zm-16.16 7.35l-40.99 0 20.95 -41.9 20.04 41.9zm8.49 17.75l45.16 94.42 -88.52 -94.42 43.36 0zm138.48 0l43.36 0 -88.52 94.42 45.16 -94.42zm8.49 -17.75l20.04 -41.9 20.95 41.9 -40.99 0z"/>
   <polygon class="fil0 str0" points="415.66,286.33 436.31,298.26 456.97,310.18 456.97,334.03 456.97,357.88 436.31,369.8 415.66,381.72 395.01,369.8 374.36,357.88 374.36,334.03 374.36,310.18 395.01,298.26 "/>
   <rect class="fil0" width="522.46" height="705.95"/>
  </g>
 </g>
</svg>
