<?xml version="1.0" encoding="UTF-8"?>
<!DOCTYPE svg PUBLIC "-//W3C//DTD SVG 1.1//EN" "http://www.w3.org/Graphics/SVG/1.1/DTD/svg11.dtd">
<!-- Creator: CorelDRAW 2018 (64 Bit Versão de avaliação) -->
<svg xmlns="http://www.w3.org/2000/svg" xml:space="preserve" width="30px" height="30px" version="1.1" shape-rendering="geometricPrecision" text-rendering="geometricPrecision" image-rendering="optimizeQuality" fill-rule="evenodd" clip-rule="evenodd"
viewBox="0 0 5.93 5.93"
 xmlns:xlink="http://www.w3.org/1999/xlink">
 <defs>
   <clipPath id="id0">
    <path d="M0 0l5.93 0 0 5.93 -5.93 0 0 -5.93z"/>
   </clipPath>
 </defs>
 <g id="Camada_x0020_1">
  <metadata id="CorelCorpID_0Corel-Layer"/>
  <polygon fill="#1BA13F" points="0,0 5.93,0 5.93,5.93 0,5.93 "/>
  <g clip-path="url(#id0)">
   <g id="_1960559263664">
    <g>
     <polygon id="1" fill="#1BA13F" fill-rule="nonzero" points="-0.43,5.09 6.36,5.09 6.36,0.83 -0.43,0.83 "/>
     <polygon fill="#FAF217" fill-rule="nonzero" points="0.32,2.98 2.95,1.32 5.61,2.95 2.98,4.61 "/>
     <path fill="#006DCC" fill-rule="nonzero" d="M4.09 2.95c0,0.08 -0.01,0.16 -0.02,0.24 -0.02,0.08 -0.05,0.17 -0.09,0.25 -0.18,0.38 -0.57,0.65 -1.03,0.65 -0.62,0 -1.13,-0.51 -1.13,-1.14 0,-0.11 0.01,-0.21 0.04,-0.31 0.03,-0.09 0.06,-0.17 0.1,-0.25 0.2,-0.34 0.57,-0.57 0.99,-0.57 0.63,0 1.14,0.51 1.14,1.13z"/>
     <path fill="#FEFEFE" fill-rule="nonzero" d="M4.07 3.19c-0.02,0.08 -0.05,0.17 -0.09,0.25l0 -0.01c-0.24,-0.29 -0.61,-0.52 -1.04,-0.67 -0.39,-0.13 -0.99,-0.13 -1.08,-0.12 0.03,-0.09 0.06,-0.17 0.1,-0.25 0,0 0.39,-0.04 1.04,0.13 0.64,0.17 1,0.58 1.07,0.67z"/>
    </g>
   </g>
  </g>
  <polygon fill="none" points="0,0 5.93,0 5.93,5.93 0,5.93 "/>
 </g>
</svg>
