<?xml version="1.0" encoding="UTF-8"?>
<!DOCTYPE svg PUBLIC "-//W3C//DTD SVG 1.1//EN" "http://www.w3.org/Graphics/SVG/1.1/DTD/svg11.dtd">
<!-- Creator: CorelDRAW 2018 (64 Bit Versão de avaliação) -->
<svg xmlns="http://www.w3.org/2000/svg" xml:space="preserve" width="500px" height="675px" version="1.1" style="shape-rendering:geometricPrecision; text-rendering:geometricPrecision; image-rendering:optimizeQuality; fill-rule:evenodd; clip-rule:evenodd"
viewBox="0 0 192.13 259.61"
 xmlns:xlink="http://www.w3.org/1999/xlink">
 <defs>
  <style type="text/css">
   <![CDATA[
    .str0 {stroke:#262433;stroke-width:1.1;stroke-miterlimit:22.9256}
    .fil1 {fill:none}
    .fil0 {fill:white;fill-rule:nonzero}
    .fil2 {fill:url(#id0);fill-rule:nonzero}
   ]]>
  </style>
  <linearGradient id="id0" gradientUnits="userSpaceOnUse" x1="51.04" y1="83.13" x2="141.09" y2="83.13">
   <stop offset="0" style="stop-opacity:1; stop-color:#285FA7"/>
   <stop offset="1" style="stop-opacity:1; stop-color:#4FA8DB"/>
  </linearGradient>
 </defs>
 <g id="Camada_x0020_1">
  <metadata id="CorelCorpID_0Corel-Layer"/>
  <g id="_2396673253168">
   <path class="fil0" d="M89.7 215.84l0 0c1.41,-2.26 1.41,-4.55 0,-6.83l-18.52 -26.71 14.53 0 13.61 19.64 13.56 -19.64 14.53 0 -18.46 26.71c-1.44,2.28 -1.44,4.57 0,6.83l18.17 26.24 -14.58 0 -13.22 -19.17 -13.27 19.17 -14.53 0 18.18 -26.24z"/>
   <g>
    <polygon class="fil1 str0" points="130.72,16.11 143.44,23.46 156.15,30.8 156.15,45.48 156.15,60.17 143.44,67.51 130.72,74.85 118,67.51 105.28,60.17 105.28,45.48 105.28,30.8 118,23.46 "/>
    <polygon class="fil1 str0" points="55.99,74.85 72.29,84.26 88.59,93.68 88.59,112.5 88.59,131.32 72.29,140.73 55.99,150.15 39.69,140.73 23.38,131.32 23.38,112.5 23.38,93.68 39.69,84.26 "/>
    <polygon class="fil1 str0" points="64.49,16.12 76.54,23.07 88.59,30.03 88.59,43.94 88.59,57.85 76.54,64.81 64.49,71.77 52.45,64.81 40.4,57.85 40.4,43.94 40.4,30.03 52.45,23.07 "/>
    <polygon class="fil1 str0" points="153.56,105.3 161.15,109.68 168.75,114.07 168.75,122.84 168.75,131.61 161.15,135.99 153.56,140.38 145.96,135.99 138.37,131.61 138.37,122.84 138.37,114.07 145.96,109.68 "/>
   </g>
   <path class="fil2" d="M136.96 119.95l-81.83 0c-2.26,0 -4.09,1.83 -4.09,4.1 0,2.25 1.83,4.08 4.09,4.08l81.83 0c2.26,0 4.1,-1.83 4.1,-4.08 -0.01,-2.27 -1.84,-4.1 -4.1,-4.1zm-81.83 -55.22l81.87 0c2.26,0 4.09,-1.84 4.09,-4.1 0,-1.8 -1.16,-3.32 -2.77,-3.88l-40.6 -18.27c-0.48,-0.21 -1,-0.33 -1.51,-0.35l-0.32 0c-0.52,0.02 -1.03,0.14 -1.52,0.35l-40.92 18.41c-1.47,0.67 -2.39,2.12 -2.41,3.67l0 0.14c0,0.26 0.03,0.52 0.09,0.79 0.4,1.89 2.07,3.24 4,3.24zm5.11 44.58c-2.26,0 -4.08,1.83 -4.08,4.09 0,2.26 1.82,4.1 4.08,4.1l71.6 0c2.27,0 4.1,-1.84 4.1,-4.1 0,-2.26 -1.83,-4.09 -4.1,-4.09l-1.02 0 0 -36.82 1.02 0c1.13,0 2.05,-0.92 2.05,-2.05 0,-1.12 -0.92,-2.04 -2.05,-2.04l-71.6 0c-1.13,0 -2.04,0.92 -2.04,2.04 0,1.13 0.91,2.05 2.04,2.05l1.02 0 0 36.82 -1.02 0zm62.4 -36.82l0 36.82 -12.28 0 0 -36.82 12.28 0zm-20.46 0l0 36.82 -12.27 0 0 -36.82 12.27 0zm-32.73 0l12.27 0 0 36.82 -12.27 0 0 -36.82z"/>
   <rect class="fil1" width="192.13" height="259.61"/>
  </g>
 </g>
</svg>
