<?xml version="1.0" encoding="UTF-8"?>
<!DOCTYPE svg PUBLIC "-//W3C//DTD SVG 1.1//EN" "http://www.w3.org/Graphics/SVG/1.1/DTD/svg11.dtd">
<!-- Creator: CorelDRAW 2018 (64 Bit Versão de avaliação) -->
<svg xmlns="http://www.w3.org/2000/svg" xml:space="preserve" width="500px" height="675px" version="1.1" style="shape-rendering:geometricPrecision; text-rendering:geometricPrecision; image-rendering:optimizeQuality; fill-rule:evenodd; clip-rule:evenodd"
viewBox="0 0 107.62 145.42"
 xmlns:xlink="http://www.w3.org/1999/xlink">
 <defs>
  <style type="text/css">
   <![CDATA[
    .str0 {stroke:#262433;stroke-width:0.61;stroke-miterlimit:22.9256}
    .fil0 {fill:none}
    .fil2 {fill:white;fill-rule:nonzero}
    .fil1 {fill:url(#id0);fill-rule:nonzero}
   ]]>
  </style>
  <linearGradient id="id0" gradientUnits="userSpaceOnUse" x1="20.83" y1="46.57" x2="86.79" y2="46.57">
   <stop offset="0" style="stop-opacity:1; stop-color:#285FA7"/>
   <stop offset="1" style="stop-opacity:1; stop-color:#4FA8DB"/>
  </linearGradient>
 </defs>
 <g id="Camada_x0020_1">
  <metadata id="CorelCorpID_0Corel-Layer"/>
  <g id="_2397256490496">
   <g>
    <g>
     <polygon class="fil0 str0" points="73.22,9.03 80.35,13.14 87.47,17.25 87.47,25.48 87.47,33.7 80.35,37.82 73.22,41.93 66.1,37.82 58.98,33.7 58.98,25.48 58.98,17.25 66.1,13.14 "/>
     <polygon class="fil0 str0" points="31.36,41.93 40.49,47.2 49.62,52.47 49.62,63.02 49.62,73.56 40.49,78.83 31.36,84.11 22.23,78.83 13.1,73.56 13.1,63.02 13.1,52.47 22.23,47.2 "/>
     <polygon class="fil0 str0" points="36.13,9.03 42.88,12.92 49.62,16.82 49.62,24.61 49.62,32.41 42.88,36.3 36.13,40.2 29.38,36.3 22.63,32.41 22.63,24.61 22.63,16.82 29.38,12.92 "/>
     <polygon class="fil0 str0" points="86.02,58.98 90.27,61.44 94.53,63.9 94.53,68.81 94.53,73.72 90.27,76.18 86.02,78.63 81.76,76.18 77.51,73.72 77.51,68.81 77.51,63.9 81.76,61.44 "/>
    </g>
    <path class="fil1" d="M81.57 43.26c-0.48,-2.15 -1.68,-4.08 -3.39,-5.46 -1.71,-1.38 -3.86,-2.13 -6.05,-2.13l-0.03 0 -0.34 -1.56c-0.5,-2.27 -1.77,-4.32 -3.58,-5.77 -1.8,-1.46 -4.08,-2.26 -6.4,-2.26l-40.95 0 0 1.94c0,3.27 1.35,6.24 3.52,8.38l0 1.45c0,3.46 1.5,6.57 3.88,8.72l0 1.11c0,6.49 5.28,11.77 11.77,11.77l1.27 0c1.47,4.41 5.64,7.6 10.54,7.6l34.98 0 -5.22 -23.79zm-49.23 6.36l20.43 0 0 -3.87 -16.65 0c-3.69,0 -6.8,-2.54 -7.66,-5.97l20.43 0 0 -3.87 -16.29 0c-3.69,0 -6.79,-2.54 -7.66,-5.96l36.84 0c2.96,0 5.57,2.1 6.2,4.99l4.54 20.64 -32.52 0c-3.69,0 -6.8,-2.54 -7.66,-5.96zm13.14 9.83l31.85 0 -4.36 -19.85c2.34,0.35 4.3,2.13 4.82,4.49l4.19 19.09 -30.17 0c-2.72,0 -5.09,-1.51 -6.33,-3.73z"/>
   </g>
   <path class="fil2" d="M38.83 135.6l0 0c-0.65,0 -1.25,-0.17 -1.78,-0.53 -0.54,-0.34 -0.94,-0.81 -1.22,-1.41l-13.7 -30.74 7.17 0 9.53 21.37 9.54 -21.37 7.14 0 -13.7 30.74c-0.28,0.6 -0.68,1.07 -1.21,1.41 -0.54,0.36 -1.13,0.53 -1.77,0.53zm46.66 0l0 0 -18.55 0c-1.81,0 -3.46,-0.44 -4.93,-1.33 -1.48,-0.89 -2.66,-2.07 -3.55,-3.55 -0.89,-1.47 -1.33,-3.12 -1.33,-4.92l0 -6.55 0 -6.56c0,-1.79 0.44,-3.44 1.33,-4.92 0.89,-1.48 2.07,-2.66 3.55,-3.55 1.47,-0.89 3.12,-1.33 4.93,-1.33l18.55 0 0 6.56 -18.55 0c-0.9,0 -1.67,0.31 -2.3,0.94 -0.64,0.64 -0.96,1.41 -0.96,2.3l0 3.29 18.53 0 0 6.54 -18.53 0 0 3.28c0,0.89 0.32,1.66 0.96,2.29 0.63,0.64 1.4,0.96 2.3,0.96l18.55 0 0 6.55z"/>
   <rect class="fil0" width="107.62" height="145.42"/>
  </g>
 </g>
</svg>
