<?xml version="1.0" encoding="UTF-8"?>
<!DOCTYPE svg PUBLIC "-//W3C//DTD SVG 1.1//EN" "http://www.w3.org/Graphics/SVG/1.1/DTD/svg11.dtd">
<!-- Creator: CorelDRAW 2018 (64 Bit Versão de avaliação) -->
<svg xmlns="http://www.w3.org/2000/svg" xml:space="preserve" width="1306px" height="1248px" version="1.1" style="shape-rendering:geometricPrecision; text-rendering:geometricPrecision; image-rendering:optimizeQuality; fill-rule:evenodd; clip-rule:evenodd"
viewBox="0 0 678.96 649.22"
 xmlns:xlink="http://www.w3.org/1999/xlink">
 <defs>
  <style type="text/css">
   <![CDATA[
    .str0 {stroke:#24A5F0;stroke-width:4.16;stroke-miterlimit:22.9256}
    .fil0 {fill:none}
   ]]>
  </style>
 </defs>
 <g id="Camada_x0020_1">
  <metadata id="CorelCorpID_0Corel-Layer"/>
  <g id="_2170395651984">
   <polygon class="fil0 str0" points="155.49,135.26 193.85,157.41 232.2,179.55 232.2,223.84 232.2,268.12 193.85,290.27 155.49,312.41 117.14,290.27 78.79,268.12 78.79,223.84 78.79,179.55 117.14,157.41 "/>
   <polygon class="fil0 str0" points="308.91,135.26 347.26,157.41 385.61,179.55 385.61,223.84 385.61,268.12 347.26,290.27 308.91,312.41 270.55,290.27 232.2,268.12 232.2,223.84 232.2,179.55 270.55,157.41 "/>
   <polygon class="fil0 str0" points="500.7,88.05 539.06,110.2 577.41,132.34 577.41,176.63 577.41,220.91 539.06,243.06 500.7,265.2 462.35,243.06 424,220.91 424,176.63 424,132.34 462.35,110.2 "/>
   <polygon class="fil0 str0" points="155.49,400.98 193.85,423.13 232.2,445.27 232.2,489.56 232.2,533.85 193.85,555.99 155.49,578.13 117.14,555.99 78.79,533.85 78.79,489.56 78.79,445.27 117.14,423.13 "/>
   <polygon class="fil0 str0" points="78.79,268.12 117.14,290.27 155.49,312.41 155.49,356.7 155.49,400.98 117.14,423.13 78.79,445.27 40.43,423.13 2.08,400.98 2.08,356.7 2.08,312.41 40.43,290.27 "/>
   <polygon class="fil0 str0" points="319.7,533.39 344.26,547.57 368.82,561.75 368.82,590.11 368.82,618.47 344.26,632.64 319.7,646.82 295.14,632.64 270.58,618.47 270.58,590.11 270.58,561.75 295.14,547.57 "/>
   <polygon class="fil0 str0" points="627.14,236.15 652.01,250.51 676.88,264.86 676.88,293.58 676.88,322.29 652.01,336.65 627.14,351.01 602.28,336.65 577.41,322.29 577.41,293.58 577.41,264.86 602.28,250.51 "/>
   <polygon class="fil0 str0" points="78.79,2.4 117.14,24.55 155.49,46.69 155.49,90.98 155.49,135.26 117.14,157.4 78.79,179.55 40.43,157.4 2.08,135.26 2.08,90.98 2.08,46.69 40.43,24.55 "/>
   <polygon class="fil0 str0" points="422.66,324.72 461.02,346.87 499.37,369.01 499.37,413.3 499.37,457.59 461.02,479.73 422.66,501.87 384.31,479.73 345.96,457.59 345.96,413.3 345.96,369.01 384.31,346.87 "/>
   <polygon class="fil0 str0" points="232.2,268.12 270.55,290.27 308.91,312.41 308.91,356.7 308.91,400.98 270.55,423.13 232.2,445.27 193.85,423.13 155.49,400.98 155.49,356.7 155.49,312.41 193.85,290.27 "/>
  </g>
 </g>
</svg>
