<?xml version="1.0" encoding="UTF-8"?>
<!DOCTYPE svg PUBLIC "-//W3C//DTD SVG 1.1//EN" "http://www.w3.org/Graphics/SVG/1.1/DTD/svg11.dtd">
<!-- Creator: CorelDRAW 2018 (64 Bit Versão de avaliação) -->
<svg xmlns="http://www.w3.org/2000/svg" xml:space="preserve" width="500px" height="500px" version="1.1" style="shape-rendering:geometricPrecision; text-rendering:geometricPrecision; image-rendering:optimizeQuality; fill-rule:evenodd; clip-rule:evenodd"
viewBox="0 0 296.33 296.33"
 xmlns:xlink="http://www.w3.org/1999/xlink">
 <defs>
  <style type="text/css">
   <![CDATA[
    .str0 {stroke:#CCCCCC;stroke-width:1.72;stroke-miterlimit:22.9256}
    .fil0 {fill:none}
    .fil1 {fill:#ED1A3D}
    .fil2 {fill:white;fill-rule:nonzero}
   ]]>
  </style>
 </defs>
 <g id="Camada_x0020_1">
  <metadata id="CorelCorpID_0Corel-Layer"/>
  <g id="_2245374843104">
   <g>
    <g>
     <g>
      <polygon class="fil0 str0" points="219.11,185.68 219.11,194.22 219.11,212.62 203.16,221.83 187.22,231.03 171.28,221.83 163.89,217.56 202.49,195.27 "/>
      <polygon class="fil0 str0" points="250.99,157.4 266.93,166.6 282.87,175.81 282.87,194.22 282.87,212.62 266.93,221.83 250.99,231.03 235.05,221.83 219.11,212.62 219.11,194.22 219.11,185.68 248.31,168.82 248.31,158.95 "/>
      <polygon class="fil0 str0" points="219.11,212.62 235.05,221.83 250.99,231.03 250.99,249.44 250.99,267.85 235.05,277.05 219.11,286.26 203.16,277.05 187.22,267.85 187.22,249.44 187.22,231.03 203.16,221.83 "/>
      <polygon class="fil0 str0" points="140.94,212.65 125.05,221.83 109.11,231.03 93.17,221.83 77.23,212.62 77.23,194.22 77.23,175.87 110.84,195.27 "/>
      <polygon class="fil0 str0" points="45.34,157.4 61.28,166.6 65.01,168.76 65.01,168.82 77.23,175.87 77.23,194.22 77.23,212.62 61.28,221.83 45.34,231.03 29.4,221.83 13.46,212.62 13.46,194.22 13.46,175.81 29.4,166.6 "/>
      <polygon class="fil0 str0" points="65.01,168.76 61.28,166.6 45.34,157.4 45.34,138.99 45.34,120.58 61.28,111.38 65.01,109.23 65.01,115.9 "/>
     </g>
     <polygon class="fil1" points="156.66,10.07 202.49,36.53 248.31,62.99 248.31,115.9 248.31,168.82 202.49,195.27 156.66,221.73 110.84,195.27 65.01,168.82 65.01,115.9 65.01,62.99 110.84,36.53 "/>
    </g>
    <path class="fil2" d="M165.23 131.51c6.83,-2.88 12.22,-6.79 16.16,-11.75 3.95,-4.95 5.92,-10.35 5.92,-16.19 0,-5.83 -1.97,-11.23 -5.92,-16.18 -3.95,-4.96 -9.33,-8.87 -16.16,-11.75 -6.82,-2.88 -14.24,-4.31 -22.26,-4.31 -8.02,0 -15.44,1.43 -22.27,4.31 -6.82,2.88 -12.21,6.79 -16.15,11.75 -3.95,4.95 -5.92,10.35 -5.92,16.18 0,5 1.49,9.71 4.47,14.12 2.98,4.4 7.08,8.12 12.28,11.14 -0.42,1.02 -0.85,1.94 -1.29,2.78 -0.44,0.84 -0.97,1.64 -1.57,2.42 -0.61,0.78 -1.09,1.39 -1.42,1.83 -0.34,0.44 -0.88,1.06 -1.64,1.86 -0.76,0.79 -1.24,1.32 -1.45,1.57 0,-0.04 -0.08,0.05 -0.25,0.28 -0.17,0.23 -0.26,0.34 -0.28,0.32 -0.03,-0.02 -0.11,0.08 -0.26,0.31 -0.14,0.23 -0.22,0.35 -0.22,0.35l-0.15 0.31c-0.07,0.13 -0.11,0.25 -0.13,0.38 -0.02,0.13 -0.03,0.27 -0.03,0.41 0,0.15 0.02,0.28 0.06,0.41 0.09,0.54 0.33,0.99 0.73,1.32 0.39,0.34 0.82,0.5 1.29,0.5l0.19 0c2.1,-0.29 3.9,-0.63 5.41,-1 6.47,-1.68 12.31,-4.37 17.51,-8.07 3.78,0.68 7.48,1.01 11.09,1.01 8.02,0 15.44,-1.43 22.26,-4.31zm41.8 2.33c2.98,-4.39 4.47,-9.1 4.47,-14.14 0,-5.17 -1.58,-10 -4.73,-14.49 -3.14,-4.49 -7.43,-8.23 -12.85,-11.21 0.97,3.15 1.45,6.34 1.45,9.57 0,5.63 -1.4,10.96 -4.22,16 -2.81,5.04 -6.84,9.49 -12.09,13.36 -4.87,3.52 -10.42,6.23 -16.63,8.12 -6.21,1.89 -12.7,2.83 -19.46,2.83 -1.26,0 -3.11,-0.08 -5.55,-0.25 8.45,5.55 18.36,8.32 29.74,8.32 3.61,0 7.3,-0.34 11.08,-1.01 5.21,3.7 11.04,6.38 17.51,8.06 1.51,0.38 3.32,0.72 5.42,1.01 0.5,0.04 0.96,-0.11 1.38,-0.44 0.42,-0.34 0.7,-0.8 0.82,-1.39 -0.02,-0.25 0,-0.38 0.07,-0.4 0.06,-0.02 0.05,-0.16 -0.03,-0.41 -0.09,-0.26 -0.13,-0.38 -0.13,-0.38l-0.16 -0.32c-0.04,-0.08 -0.11,-0.2 -0.22,-0.34 -0.1,-0.15 -0.19,-0.25 -0.25,-0.32 -0.06,-0.06 -0.16,-0.16 -0.28,-0.31 -0.13,-0.15 -0.21,-0.24 -0.25,-0.28 -0.22,-0.26 -0.7,-0.78 -1.45,-1.58 -0.76,-0.79 -1.31,-1.41 -1.64,-1.85 -0.34,-0.45 -0.81,-1.05 -1.42,-1.83 -0.61,-0.78 -1.13,-1.59 -1.57,-2.43 -0.44,-0.84 -0.87,-1.76 -1.29,-2.77 5.2,-3.02 9.3,-6.73 12.28,-11.12z"/>
   </g>
   <rect class="fil0" width="296.33" height="296.33"/>
  </g>
 </g>
</svg>
