<?xml version="1.0" encoding="UTF-8"?>
<!DOCTYPE svg PUBLIC "-//W3C//DTD SVG 1.1//EN" "http://www.w3.org/Graphics/SVG/1.1/DTD/svg11.dtd">
<!-- Creator: CorelDRAW 2018 (64 Bit Versão de avaliação) -->
<svg xmlns="http://www.w3.org/2000/svg" xml:space="preserve" width="500px" height="500px" version="1.1" style="shape-rendering:geometricPrecision; text-rendering:geometricPrecision; image-rendering:optimizeQuality; fill-rule:evenodd; clip-rule:evenodd"
viewBox="0 0 863.01 863.01"
 xmlns:xlink="http://www.w3.org/1999/xlink">
 <defs>
  <style type="text/css">
   <![CDATA[
    .str0 {stroke:#CCCCCC;stroke-width:5.02;stroke-miterlimit:22.9256}
    .fil0 {fill:none}
    .fil1 {fill:#0F5BBF}
    .fil2 {fill:white;fill-rule:nonzero}
   ]]>
  </style>
 </defs>
 <g id="Camada_x0020_1">
  <metadata id="CorelCorpID_0Corel-Layer"/>
  <g id="_2245364148832">
   <g>
    <g>
     <g>
      <polygon class="fil0 str0" points="638.11,540.75 638.11,565.62 638.11,619.23 591.68,646.03 545.25,672.84 498.82,646.03 477.29,633.6 589.71,568.7 "/>
      <polygon class="fil0 str0" points="730.96,458.4 777.39,485.2 823.82,512.01 823.82,565.62 823.82,619.23 777.39,646.03 730.96,672.84 684.54,646.03 638.11,619.23 638.11,565.62 638.11,540.75 723.16,491.65 723.16,462.9 "/>
      <polygon class="fil0 str0" points="638.11,619.23 684.54,646.04 730.96,672.84 730.96,726.45 730.96,780.06 684.54,806.87 638.11,833.67 591.68,806.87 545.25,780.06 545.25,726.45 545.25,672.84 591.68,646.04 "/>
      <polygon class="fil0 str0" points="410.47,619.32 364.19,646.03 317.76,672.84 271.34,646.03 224.91,619.23 224.91,565.62 224.91,512.18 322.79,568.7 "/>
      <polygon class="fil0 str0" points="132.05,458.4 178.48,485.2 189.34,491.47 189.34,491.65 224.91,512.18 224.91,565.62 224.91,619.23 178.48,646.03 132.05,672.84 85.62,646.03 39.2,619.23 39.2,565.62 39.2,512.01 85.62,485.2 "/>
      <polygon class="fil0 str0" points="189.34,491.47 178.48,485.2 132.05,458.4 132.05,404.79 132.05,351.17 178.48,324.37 189.34,318.1 189.34,337.54 "/>
     </g>
     <polygon class="fil1" points="456.25,29.34 589.71,106.39 723.16,183.44 723.16,337.54 723.16,491.65 589.71,568.7 456.25,645.75 322.79,568.7 189.34,491.65 189.34,337.54 189.34,183.44 322.79,106.39 "/>
    </g>
    <g>
     <path class="fil2" d="M356.08 288.97c3.22,2.28 12.94,9.03 29.15,20.26 16.22,11.24 28.64,19.89 37.26,25.95 0.95,0.67 2.97,2.12 6.05,4.34 3.08,2.23 5.64,4.03 7.68,5.4 2.03,1.39 4.49,2.92 7.39,4.63 2.89,1.71 5.62,2.99 8.18,3.84 2.56,0.85 4.93,1.28 7.11,1.28l0.28 0c2.19,0 4.56,-0.43 7.12,-1.28 2.56,-0.85 5.29,-2.14 8.18,-3.84 2.89,-1.71 5.35,-3.24 7.39,-4.63 2.04,-1.37 4.6,-3.17 7.67,-5.4 3.09,-2.22 5.11,-3.67 6.05,-4.34 8.72,-6.07 30.91,-21.47 66.56,-46.22 6.92,-4.83 12.7,-10.66 17.34,-17.49 4.65,-6.82 6.98,-13.97 6.98,-21.47 0,-6.25 -2.26,-11.61 -6.76,-16.07 -4.5,-4.46 -9.84,-6.68 -16,-6.68l-209.33 0c-7.31,0 -12.92,2.46 -16.86,7.39 -3.93,4.93 -5.9,11.09 -5.9,18.49 0,5.98 2.61,12.45 7.82,19.42 5.21,6.96 10.76,12.44 16.64,16.42z"/>
     <path class="fil2" d="M572.24 304.19c-31.09,21.04 -54.7,37.39 -70.82,49.05 -5.4,3.99 -9.79,7.09 -13.15,9.32 -3.36,2.23 -7.85,4.51 -13.44,6.83 -5.6,2.32 -10.8,3.48 -15.65,3.48l-0.28 0c-4.84,0 -10.05,-1.16 -15.64,-3.48 -5.6,-2.32 -10.08,-4.6 -13.45,-6.83 -3.35,-2.23 -7.74,-5.33 -13.15,-9.32 -12.8,-9.38 -36.36,-25.74 -70.68,-49.05 -5.4,-3.61 -10.19,-7.73 -14.36,-12.38l0 112.91c0,6.27 2.23,11.62 6.68,16.08 4.46,4.46 9.82,6.68 16.08,6.68l209.33 0c6.26,0 11.62,-2.22 16.07,-6.68 4.46,-4.46 6.69,-9.81 6.69,-16.08l0 -112.91c-4.08,4.55 -8.82,8.67 -14.23,12.38z"/>
    </g>
   </g>
   <rect class="fil0" width="863.01" height="863.01"/>
  </g>
 </g>
</svg>
