<?xml version="1.0" encoding="UTF-8"?>
<!DOCTYPE svg PUBLIC "-//W3C//DTD SVG 1.1//EN" "http://www.w3.org/Graphics/SVG/1.1/DTD/svg11.dtd">
<!-- Creator: CorelDRAW 2018 (64 Bit Versão de avaliação) -->
<svg xmlns="http://www.w3.org/2000/svg" xml:space="preserve" width="1023px" height="302px" version="1.1" style="shape-rendering:geometricPrecision; text-rendering:geometricPrecision; image-rendering:optimizeQuality; fill-rule:evenodd; clip-rule:evenodd"
viewBox="0 0 326.54 96.22"
 xmlns:xlink="http://www.w3.org/1999/xlink">
 <defs>
  <style type="text/css">
   <![CDATA[
    .fil2 {fill:none}
    .fil0 {fill:white;fill-rule:nonzero}
    .fil1 {fill:url(#id0)}
   ]]>
  </style>
  <linearGradient id="id0" gradientUnits="userSpaceOnUse" x1="16.97" y1="48.11" x2="89.37" y2="48.11">
   <stop offset="0" style="stop-opacity:1; stop-color:#285FA7"/>
   <stop offset="1" style="stop-opacity:1; stop-color:#4FA8DB"/>
  </linearGradient>
 </defs>
 <g id="Camada_x0020_1">
  <metadata id="CorelCorpID_0Corel-Layer"/>
  <g id="_2104839927088">
   <path class="fil0" d="M120.99 67.76l0 0c-0.78,0 -1.5,-0.21 -2.14,-0.64 -0.65,-0.41 -1.13,-0.97 -1.47,-1.69l-16.45 -36.94 8.61 0 11.45 25.67 11.46 -25.67 8.58 0 -16.46 36.94c-0.33,0.72 -0.81,1.28 -1.45,1.69 -0.66,0.43 -1.36,0.64 -2.13,0.64zm163.79 -17.25l0 0c0.93,-1.49 0.93,-2.99 0,-4.49l-12.17 -17.56 9.55 0 8.95 12.91 8.91 -12.91 9.56 0 -12.15 17.56c-0.94,1.5 -0.94,3 0,4.49l11.95 17.25 -9.58 0 -8.69 -12.61 -8.73 12.61 -9.55 0 11.95 -17.25zm-53.11 17.25l0 0 -7.88 0 0 -22.4 -13.75 20.64c-0.79,1.14 -1.87,1.73 -3.25,1.76 -0.01,0 -0.03,0 -0.03,0 0,0 0,0 0,0 -1.39,-0.05 -2.49,-0.66 -3.28,-1.79l-13.06 -20.26 0 22.05 -7.88 0 0 -35.36c0,-0.87 0.26,-1.67 0.78,-2.36 0.51,-0.69 1.18,-1.15 2.03,-1.41 1.84,-0.44 3.31,0.1 4.43,1.62l17.04 26.42 17.64 -26.45c1.12,-1.51 2.59,-2.03 4.4,-1.59 0.84,0.27 1.53,0.75 2.04,1.44 0.51,0.69 0.77,1.47 0.77,2.33l0 35.36zm20.88 -39.27l0 0c0.77,0 1.47,0.21 2.13,0.62 0.64,0.43 1.12,0.99 1.45,1.71l16.46 36.94 -8.58 0 -11.46 -25.67 -11.45 25.67 -8.61 0 16.45 -36.94c0.34,-0.72 0.82,-1.28 1.47,-1.71 0.64,-0.41 1.36,-0.62 2.14,-0.62zm-75.5 39.27l0 0 -22.29 0c-2.17,0 -4.15,-0.53 -5.92,-1.6 -1.78,-1.07 -3.2,-2.49 -4.27,-4.26 -1.07,-1.78 -1.6,-3.76 -1.6,-5.91l0 -7.88 0 -7.88c0,-2.15 0.53,-4.14 1.6,-5.91 1.07,-1.77 2.49,-3.19 4.27,-4.26 1.77,-1.08 3.75,-1.6 5.92,-1.6l22.29 0 0 7.87 -22.29 0c-1.08,0 -2.01,0.39 -2.76,1.14 -0.77,0.77 -1.15,1.69 -1.15,2.76l0 3.95 22.26 0 0 7.86 -22.26 0 0 3.95c0,1.07 0.38,1.99 1.15,2.74 0.75,0.77 1.68,1.15 2.76,1.15l22.29 0 0 7.88z"/>
   <path class="fil1" d="M35.05 16.75l-18.08 10.46 0 41.79 18.08 10.46 18.11 10.46 18.1 -10.46 18.11 -10.46 0 -20.89 0 -20.9 -18.11 -10.46 -18.1 -10.46 -18.11 10.46zm-2.36 28.21l-0.06 -0.02 -0.02 0 0 0 -0.07 0 0 0 0 -0.02 -0.08 0 -0.02 -0.03 -0.09 -0.02 0 0 -0.04 0 -0.07 -0.03 -0.02 0 -0.06 -0.02 -0.04 -0.03 -0.05 0 -0.08 -0.05 -0.02 0 -0.07 -0.02 -0.08 -0.02 0 0 -0.11 -0.05 -0.04 -0.03 -0.07 -0.02 -0.11 -0.03 0 0 -0.1 -0.05 -0.07 -0.02 -0.04 -0.02 -0.11 -0.05 -0.02 -0.03 -0.11 -0.02 -0.08 -0.05 -0.02 0 -0.13 -0.07 -0.07 -0.03 -0.06 -0.02 -0.13 -0.05 0 0 -0.13 -0.07 -0.08 -0.03 -0.07 -0.02 -0.13 -0.08 -0.04 -0.02 -0.11 -0.02 -0.1 -0.08 -0.02 0 -0.15 -0.07 -0.07 -0.03 -0.08 -0.04 -0.15 -0.08 0 0 -0.15 -0.07 -0.11 -0.05 -0.04 -0.02 -0.15 -0.08 -0.05 0 -0.13 -0.07 -0.12 -0.05 -0.03 -0.02 -0.17 -0.08 -0.06 -0.02 -0.09 -0.05 -0.17 -0.07 0 -0.03 -0.15 -0.07 -0.13 -0.05 -0.04 -0.02 -0.17 -0.08 -0.04 -0.02 -0.13 -0.07 -0.15 -0.05 -0.02 -0.03 -0.15 -0.07 -0.09 -0.05 -0.09 -0.05 -0.17 -0.07 -0.02 0 -0.15 -0.1 -0.13 -0.05 -0.04 -0.02 -0.17 -0.1 -0.07 -0.02 -0.1 -0.05 -0.15 -0.08 -0.02 -0.02 -0.18 -0.07 -0.08 -0.05 -0.09 -0.05 -0.17 -0.07 -0.02 -0.03 -0.15 -0.07 -0.13 -0.05 -0.04 -0.02 -0.17 -0.1 -0.07 -0.03 -0.1 -0.04 -0.15 -0.08 -0.03 -0.02 -0.17 -0.08 -0.08 -0.04 -0.09 -0.05 -0.17 -0.08 0 -9.7 14.55 -8.39 14.53 -8.38 14.54 8.38 14.53 8.39 0 16.8 0 16.77 -14.53 8.42 -14.54 8.38 -14.53 -8.38 -14.55 -8.42 0 -4.43 0.02 0 0.02 0.02 0.02 0 0.03 0 0.02 0 0.02 0.02 0.02 0 0 0 0.02 0.03 0.04 0 0.03 0.02 0 0 0.02 0 0.04 0.03 0.02 0 0 0 0.02 0.02 0.05 0 0.02 0.03 0 0 0.04 0 0.02 0.02 0.04 0.03 0 0 0.03 0 0.04 0.02 0.02 0 0 0 0.04 0.02 0.05 0.03 0.02 0 0.02 0 0.02 0.02 0.04 0.03 0.05 0 0 0.02 0.04 0 0.02 0.03 0.04 0.02 0.02 0 0.03 0 0.04 0.03 0.04 0.02 0.02 0 0.02 0.02 0.05 0.03 0.04 0 0.02 0.02 0.04 0 0.05 0.03 0.04 0.02 0.02 0 0.02 0.03 0.05 0.02 0.06 0.02 0.02 0 0.02 0.03 0.05 0.02 0.06 0.03 0.02 0 0.02 0.02 0.07 0.03 0.04 0.02 0.04 0.03 0.02 0 0.07 0.02 0.04 0.02 0.04 0.03 0.09 0.02 0.04 0.05 0.07 0 0 0.03 0.06 0.02 0.07 0.02 0.04 0.03 0.02 0 0.06 0.05 0.07 0.02 0.06 0.03 0 0 0.07 0.05 0.06 0.02 0.07 0.02c7.05,3.51 14.18,6.76 21.31,10.1l0 0c2.38,1.12 6.26,0 8.1,-1.76l0 0 19.65 -24.99c0.32,-0.41 4.93,-6.07 4.84,-6.34l0 0c-0.27,-0.83 -3.06,-2.17 -3.87,-2.46l0 0 -1.53 -0.56c-2.14,-0.88 -3.68,-1.07 -5.35,1.1l0 0 -7.2 9.48c-0.28,0.34 -0.41,0.59 -0.71,0.95l0 0 -2.14 2.85c-0.51,0.66 -0.92,1.17 -1.41,1.81l0 0c-1.08,1.39 -7.95,10.53 -8.79,11.31l0 0c-0.47,0.46 -1.5,1.22 -2.27,1.49l0 0c-2.57,0.85 -5.21,-0.73 -7.03,-1.64l0 0 -16.39 -8.19 0 -1.46 0.02 0 0.22 0.1 0.08 0.05 0.15 0.07 0.17 0.1 0.07 0.02 0.25 0.12 0.03 0.03 0.23 0.09 0.11 0.05 0.15 0.1 0.19 0.1 0.09 0.02 0.25 0.15 0.03 0 0.25 0.12 0.11 0.05 0.19 0.1 0.2 0.1 0.08 0.04 0.28 0.13 0.02 0.02 0.28 0.12 0.11 0.08 0.19 0.07 0.21 0.1 0.09 0.04 0.3 0.15 0.02 0 0.3 0.15 0.11 0.07 0.19 0.07 0.22 0.13 0.1 0.04 0.3 0.15 0.02 0 0.3 0.15 0.13 0.05 0.2 0.09 0.21 0.12 0.11 0.03 0.3 0.17 0.02 0 0.3 0.15 0.13 0.04 0.19 0.1 0.24 0.12 0.08 0.05 0.32 0.15 0.02 0 0.3 0.15 0.11 0.04 0.22 0.1 0.21 0.12 0.09 0.03 0.32 0.17 0.02 0 0.3 0.15 0.11 0.04 0.19 0.1 0.21 0.1 0.11 0.05 0.3 0.14 0 0 0.3 0.15 0.11 0.05 0.19 0.1 0.21 0.09 0.09 0.03 0.3 0.15 0 0 0.28 0.14 0.1 0.05 0.2 0.07 0.19 0.1 0.09 0.05 0.27 0.12 0 0 0.28 0.12 0.09 0.05 0.17 0.1 0.17 0.07 0.09 0.05 0.25 0.12 0 0 0.26 0.1 0.09 0.05 0.15 0.07 0.17 0.08 0.06 0.04 0.24 0.1 0 0 0.21 0.1 0.09 0.05 0.13 0.07 0.15 0.05 0.06 0.05 0.19 0.1 0 0 0.2 0.07 0.06 0.02 0.13 0.08 0.11 0.05 0.06 0.02 0.17 0.07 0 0 0.15 0.08 0.05 0.02 0.1 0.05 0.09 0.05 0.04 0.02 0.13 0.05c0.36,0.12 0.39,0.1 0.75,0.29l0 0c3.64,1.83 5.87,0.96 8.57,-2.53l0 0c0.26,-0.34 0.36,-0.54 0.62,-0.88l0 0 4.91 -6.61c0.28,-0.36 0.41,-0.58 0.68,-0.97l0 0 11.9 -16.09c1.56,-2.34 2.14,-1.78 -0.48,-3.39l0 0 -4.3 -1.86c-3.07,-1.24 -4.67,1.17 -6.17,3.44l0 0 -3.5 4.78c-0.23,0.29 -0.38,0.49 -0.6,0.81l0 0c-0.21,0.31 -0.38,0.51 -0.6,0.8l0 0c-2.29,2.95 -4.73,6.61 -7.04,9.56l0 0c-1.08,1.39 -3.22,4.87 -4.74,5.39l0 0c-2.94,0.97 -3.51,0.29 -5.19,-0.3l0 0c-0.32,-0.12 -0.32,-0.07 -0.68,-0.24l0 0 -11.25 -5.61 0 -0.07 0 -1.68 0.11 0.05 0.04 0.02 0.13 0.07 0 0 0.13 0.08 0.15 0.07 0.06 0.02 0.07 0.05 0.1 0.05 0.05 0.03 0.12 0.07 0 0 0.15 0.07 0.03 0 0.1 0.07 0.26 0.13 0.04 0.02 0.13 0.07 0 0 0.3 0.15 0.04 0.05 0.09 0.05 0.11 0.05 0.04 0.02 0.13 0.05 0.02 0.02 0.15 0.08 0 0 0.13 0.07 0.06 0.02 0.09 0.05 0.08 0.05 0.07 0.03 0.11 0.07 0.04 0 0.13 0.07 0.02 0.03 0.13 0.07 0.04 0.03 0.11 0.04 0.06 0.03 0.19 0.1 0.03 0.02 0.15 0.07 0 0 0.15 0.08 0.02 0.02 0.1 0.05 0.09 0.02 0.06 0.05 0.11 0.05 0.04 0.03 0.13 0.07 0 0 0.15 0.07 0.02 0 0.11 0.08 0.09 0.02 0.06 0.02 0.11 0.05 0.17 0.1 0 0 0.13 0.07 0.04 0 0.11 0.05 0.06 0.05 0.07 0.03 0.1 0.04 0.18 0.08 0 0 0.12 0.07 0.03 0 0.12 0.07 0.05 0.03 0.08 0.02 0.09 0.05 0.04 0.03 0.13 0.04 0 0 0.13 0.05 0.02 0.03 0.11 0.05 0.06 0 0.07 0.05 0.08 0.02 0.04 0.02 0.11 0.05 0.02 0 0.13 0.05 0.02 0.03 0.11 0.04 0.04 0 0.09 0.05 0.06 0.03 0.05 0 0.1 0.05 0.02 0 0.13 0.05 0 0 0.11 0.04 0.04 0 0.07 0.05 0.06 0 0.07 0.03 0.08 0.02 0.02 0.03 0.11 0.02 3.11 1.44c1.37,0.63 2.97,1.14 4.45,0.24l0 0c1.27,-0.78 3.62,-4.22 4.48,-5.31l0 0 9.58 -12.44c1.07,-1.39 3.75,-5.07 4.73,-6.17l0 0c0.84,-0.92 0.52,-1.31 -1.32,-2.21l0 0c-1.57,-0.78 -1.72,-0.88 -3.22,-1.42l0 0c-1.56,-0.56 -2.53,-0.93 -3.38,-0.78l0 0 -0.67 0.24c-0.66,0.32 -1.33,1.03 -2.25,2.2l0 0 -6.43 8.65c-0.17,0.22 -0.34,0.42 -0.49,0.66l0 0 -5.8 7.98c-0.24,0.24 -1.23,1 -1.59,1.12l0 0c-0.3,0.1 -0.81,0.14 -1.14,0.14l0 0c-0.06,0 -0.1,0 -0.15,0l0 0z"/>
   <rect class="fil2" width="326.54" height="96.22"/>
  </g>
 </g>
</svg>
